<mxfile host="Electron" agent="Mozilla/5.0 (Windows NT 10.0; Win64; x64) AppleWebKit/537.36 (KHTML, like Gecko) draw.io/21.2.1 Chrome/112.0.5615.87 Electron/24.1.2 Safari/537.36" modified="2025-02-25T17:17:41.080Z" etag="S8DcW9rWhvyh7wi1rCm0" version="21.2.1" type="device" pages="3">
  <diagram name="INT Chain" id="pVeiws0xhU7a0nwYw0V9">
    <mxGraphModel dx="1418" dy="828" grid="1" gridSize="10" guides="1" tooltips="1" connect="1" arrows="1" fold="1" page="1" pageScale="1" pageWidth="827" pageHeight="1169" math="0" shadow="0">
      <root>
        <mxCell id="0" />
        <mxCell id="1" parent="0" />
        <mxCell id="uLyZbbT2JMtD4a8MixMj-12" style="edgeStyle=orthogonalEdgeStyle;rounded=0;orthogonalLoop=1;jettySize=auto;html=1;exitX=1;exitY=0.5;exitDx=0;exitDy=0;entryX=0;entryY=0.5;entryDx=0;entryDy=0;" parent="1" source="uLyZbbT2JMtD4a8MixMj-1" target="uLyZbbT2JMtD4a8MixMj-2" edge="1">
          <mxGeometry relative="1" as="geometry" />
        </mxCell>
        <mxCell id="uLyZbbT2JMtD4a8MixMj-1" value="CTC&lt;div&gt;cs1&lt;/div&gt;&lt;div&gt;Sys&lt;/div&gt;" style="rounded=0;whiteSpace=wrap;html=1;fillColor=#f5f5f5;strokeColor=#666666;fontColor=#333333;" parent="1" vertex="1">
          <mxGeometry x="240" y="240" width="40" height="80" as="geometry" />
        </mxCell>
        <mxCell id="uLyZbbT2JMtD4a8MixMj-11" style="edgeStyle=orthogonalEdgeStyle;rounded=0;orthogonalLoop=1;jettySize=auto;html=1;exitX=1;exitY=0.5;exitDx=0;exitDy=0;entryX=0;entryY=0.5;entryDx=0;entryDy=0;" parent="1" source="uLyZbbT2JMtD4a8MixMj-2" target="uLyZbbT2JMtD4a8MixMj-3" edge="1">
          <mxGeometry relative="1" as="geometry" />
        </mxCell>
        <mxCell id="uLyZbbT2JMtD4a8MixMj-13" style="edgeStyle=orthogonalEdgeStyle;rounded=0;orthogonalLoop=1;jettySize=auto;html=1;exitX=1;exitY=0.5;exitDx=0;exitDy=0;entryX=0;entryY=0.75;entryDx=0;entryDy=0;" parent="1" source="uLyZbbT2JMtD4a8MixMj-2" target="uLyZbbT2JMtD4a8MixMj-7" edge="1">
          <mxGeometry relative="1" as="geometry">
            <Array as="points">
              <mxPoint x="380" y="280" />
              <mxPoint x="380" y="330" />
              <mxPoint x="530" y="330" />
              <mxPoint x="530" y="290" />
            </Array>
          </mxGeometry>
        </mxCell>
        <mxCell id="uLyZbbT2JMtD4a8MixMj-2" value="SIO&lt;div&gt;cs7&lt;/div&gt;&lt;div&gt;uart&lt;/div&gt;" style="rounded=0;whiteSpace=wrap;html=1;fillColor=#f5f5f5;strokeColor=#666666;fontColor=#333333;" parent="1" vertex="1">
          <mxGeometry x="320" y="240" width="40" height="80" as="geometry" />
        </mxCell>
        <mxCell id="uLyZbbT2JMtD4a8MixMj-10" style="edgeStyle=orthogonalEdgeStyle;rounded=0;orthogonalLoop=1;jettySize=auto;html=1;exitX=1;exitY=0.5;exitDx=0;exitDy=0;" parent="1" source="uLyZbbT2JMtD4a8MixMj-3" target="uLyZbbT2JMtD4a8MixMj-4" edge="1">
          <mxGeometry relative="1" as="geometry" />
        </mxCell>
        <mxCell id="uLyZbbT2JMtD4a8MixMj-3" value="PIO&lt;div&gt;cs5&lt;/div&gt;&lt;div&gt;KbRow&lt;/div&gt;" style="rounded=0;whiteSpace=wrap;html=1;fillColor=#f5f5f5;strokeColor=#666666;fontColor=#333333;" parent="1" vertex="1">
          <mxGeometry x="400" y="240" width="40" height="80" as="geometry" />
        </mxCell>
        <mxCell id="uLyZbbT2JMtD4a8MixMj-9" style="edgeStyle=orthogonalEdgeStyle;rounded=0;orthogonalLoop=1;jettySize=auto;html=1;exitX=1;exitY=0.5;exitDx=0;exitDy=0;entryX=0;entryY=0.5;entryDx=0;entryDy=0;" parent="1" source="uLyZbbT2JMtD4a8MixMj-4" target="uLyZbbT2JMtD4a8MixMj-7" edge="1">
          <mxGeometry relative="1" as="geometry" />
        </mxCell>
        <mxCell id="uLyZbbT2JMtD4a8MixMj-4" value="PIO&lt;div&gt;cs2&lt;/div&gt;&lt;div&gt;Disp&lt;/div&gt;" style="rounded=0;whiteSpace=wrap;html=1;fillColor=#f5f5f5;strokeColor=#666666;fontColor=#333333;" parent="1" vertex="1">
          <mxGeometry x="480" y="240" width="40" height="80" as="geometry" />
        </mxCell>
        <mxCell id="uLyZbbT2JMtD4a8MixMj-19" style="edgeStyle=orthogonalEdgeStyle;rounded=0;orthogonalLoop=1;jettySize=auto;html=1;exitX=1;exitY=0.5;exitDx=0;exitDy=0;entryX=1;entryY=0.5;entryDx=0;entryDy=0;" parent="1" source="uLyZbbT2JMtD4a8MixMj-5" target="uLyZbbT2JMtD4a8MixMj-18" edge="1">
          <mxGeometry relative="1" as="geometry" />
        </mxCell>
        <mxCell id="uLyZbbT2JMtD4a8MixMj-5" value="PIO&lt;div&gt;cs4&lt;/div&gt;&lt;div&gt;KbCol&lt;/div&gt;" style="rounded=0;whiteSpace=wrap;html=1;fillColor=#f5f5f5;strokeColor=#666666;fontColor=#333333;" parent="1" vertex="1">
          <mxGeometry x="600" y="240" width="40" height="80" as="geometry" />
        </mxCell>
        <mxCell id="uLyZbbT2JMtD4a8MixMj-8" style="edgeStyle=orthogonalEdgeStyle;rounded=0;orthogonalLoop=1;jettySize=auto;html=1;exitX=1;exitY=0.5;exitDx=0;exitDy=0;entryX=0;entryY=0.5;entryDx=0;entryDy=0;" parent="1" source="uLyZbbT2JMtD4a8MixMj-7" target="uLyZbbT2JMtD4a8MixMj-5" edge="1">
          <mxGeometry relative="1" as="geometry" />
        </mxCell>
        <mxCell id="uLyZbbT2JMtD4a8MixMj-7" value="&amp;amp;" style="rounded=0;whiteSpace=wrap;html=1;" parent="1" vertex="1">
          <mxGeometry x="550" y="260" width="20" height="40" as="geometry" />
        </mxCell>
        <mxCell id="uLyZbbT2JMtD4a8MixMj-14" value="" style="pointerEvents=1;verticalLabelPosition=bottom;shadow=0;dashed=0;align=center;html=1;verticalAlign=top;shape=mxgraph.electrical.resistors.resistor_1;rotation=-90;" parent="1" vertex="1">
          <mxGeometry x="190" y="260" width="30" height="10" as="geometry" />
        </mxCell>
        <mxCell id="uLyZbbT2JMtD4a8MixMj-16" style="edgeStyle=orthogonalEdgeStyle;rounded=0;orthogonalLoop=1;jettySize=auto;html=1;exitX=1;exitY=0.5;exitDx=0;exitDy=0;entryX=0;entryY=0.5;entryDx=0;entryDy=0;" parent="1" source="uLyZbbT2JMtD4a8MixMj-15" target="uLyZbbT2JMtD4a8MixMj-1" edge="1">
          <mxGeometry relative="1" as="geometry" />
        </mxCell>
        <mxCell id="uLyZbbT2JMtD4a8MixMj-15" value="" style="triangle;whiteSpace=wrap;html=1;" parent="1" vertex="1">
          <mxGeometry x="170" y="270" width="10" height="20" as="geometry" />
        </mxCell>
        <mxCell id="uLyZbbT2JMtD4a8MixMj-18" value="" style="triangle;whiteSpace=wrap;html=1;direction=west;" parent="1" vertex="1">
          <mxGeometry x="670" y="270" width="10" height="20" as="geometry" />
        </mxCell>
        <mxCell id="uLyZbbT2JMtD4a8MixMj-21" value="" style="endArrow=none;html=1;rounded=0;" parent="1" edge="1">
          <mxGeometry width="50" height="50" relative="1" as="geometry">
            <mxPoint x="200" y="250" as="sourcePoint" />
            <mxPoint x="210" y="250" as="targetPoint" />
          </mxGeometry>
        </mxCell>
        <mxCell id="uLyZbbT2JMtD4a8MixMj-22" value="VCC" style="text;html=1;align=center;verticalAlign=middle;whiteSpace=wrap;rounded=0;" parent="1" vertex="1">
          <mxGeometry x="190" y="230" width="30" height="20" as="geometry" />
        </mxCell>
        <mxCell id="uLyZbbT2JMtD4a8MixMj-25" style="edgeStyle=orthogonalEdgeStyle;rounded=0;orthogonalLoop=1;jettySize=auto;html=1;entryX=0.5;entryY=1;entryDx=0;entryDy=0;" parent="1" source="uLyZbbT2JMtD4a8MixMj-23" target="uLyZbbT2JMtD4a8MixMj-2" edge="1">
          <mxGeometry relative="1" as="geometry" />
        </mxCell>
        <mxCell id="uLyZbbT2JMtD4a8MixMj-23" value="CTC&lt;div&gt;cs6&lt;/div&gt;&lt;div&gt;usart&lt;/div&gt;" style="rounded=0;whiteSpace=wrap;html=1;fillColor=#f5f5f5;strokeColor=#666666;fontColor=#333333;" parent="1" vertex="1">
          <mxGeometry x="240" y="360" width="40" height="80" as="geometry" />
        </mxCell>
        <mxCell id="uLyZbbT2JMtD4a8MixMj-24" value="PIO&lt;div&gt;cs3&lt;/div&gt;&lt;div&gt;Motor&lt;/div&gt;" style="rounded=0;whiteSpace=wrap;html=1;fillColor=#f5f5f5;strokeColor=#666666;fontColor=#333333;" parent="1" vertex="1">
          <mxGeometry x="440" y="360" width="40" height="80" as="geometry" />
        </mxCell>
        <mxCell id="uLyZbbT2JMtD4a8MixMj-26" value="" style="endArrow=none;html=1;rounded=0;" parent="1" edge="1">
          <mxGeometry width="50" height="50" relative="1" as="geometry">
            <mxPoint x="205" y="380" as="sourcePoint" />
            <mxPoint x="215" y="380" as="targetPoint" />
          </mxGeometry>
        </mxCell>
        <mxCell id="uLyZbbT2JMtD4a8MixMj-27" value="VCC" style="text;html=1;align=center;verticalAlign=middle;whiteSpace=wrap;rounded=0;" parent="1" vertex="1">
          <mxGeometry x="190" y="360" width="30" height="20" as="geometry" />
        </mxCell>
        <mxCell id="uLyZbbT2JMtD4a8MixMj-28" style="edgeStyle=orthogonalEdgeStyle;rounded=0;orthogonalLoop=1;jettySize=auto;html=1;exitX=0;exitY=0.5;exitDx=0;exitDy=0;entryX=0.66;entryY=1.005;entryDx=0;entryDy=0;entryPerimeter=0;endArrow=none;endFill=0;startArrow=classic;startFill=1;" parent="1" source="uLyZbbT2JMtD4a8MixMj-23" target="uLyZbbT2JMtD4a8MixMj-27" edge="1">
          <mxGeometry relative="1" as="geometry" />
        </mxCell>
        <mxCell id="uLyZbbT2JMtD4a8MixMj-31" value="&lt;font style=&quot;font-size: 10px;&quot;&gt;TO0&lt;/font&gt;" style="text;html=1;align=center;verticalAlign=middle;whiteSpace=wrap;rounded=0;fontSize=9;" parent="1" vertex="1">
          <mxGeometry x="290" y="390" width="20" height="10" as="geometry" />
        </mxCell>
        <mxCell id="uLyZbbT2JMtD4a8MixMj-32" value="&lt;font style=&quot;font-size: 10px;&quot;&gt;IEi&lt;/font&gt;" style="text;html=1;align=center;verticalAlign=middle;whiteSpace=wrap;rounded=0;fontSize=9;" parent="1" vertex="1">
          <mxGeometry x="150" y="275" width="20" height="10" as="geometry" />
        </mxCell>
        <mxCell id="uLyZbbT2JMtD4a8MixMj-34" value="&lt;font style=&quot;font-size: 10px;&quot;&gt;IE1&lt;/font&gt;" style="text;html=1;align=center;verticalAlign=middle;whiteSpace=wrap;rounded=0;fontSize=9;" parent="1" vertex="1">
          <mxGeometry x="290" y="270" width="20" height="10" as="geometry" />
        </mxCell>
        <mxCell id="uLyZbbT2JMtD4a8MixMj-35" value="&lt;font style=&quot;font-size: 10px;&quot;&gt;IE2&lt;/font&gt;" style="text;html=1;align=center;verticalAlign=middle;whiteSpace=wrap;rounded=0;fontSize=9;" parent="1" vertex="1">
          <mxGeometry x="370" y="270" width="20" height="10" as="geometry" />
        </mxCell>
        <mxCell id="uLyZbbT2JMtD4a8MixMj-36" value="IE3&lt;span style=&quot;color: rgba(0, 0, 0, 0); font-family: monospace; font-size: 0px; text-align: start; text-wrap: nowrap;&quot;&gt;%3CmxGraphModel%3E%3Croot%3E%3CmxCell%20id%3D%220%22%2F%3E%3CmxCell%20id%3D%221%22%20parent%3D%220%22%2F%3E%3CmxCell%20id%3D%222%22%20value%3D%22%26lt%3Bfont%20style%3D%26quot%3Bfont-size%3A%2010px%3B%26quot%3B%26gt%3BIEi%26lt%3B%2Ffont%26gt%3B%22%20style%3D%22text%3Bhtml%3D1%3Balign%3Dcenter%3BverticalAlign%3Dmiddle%3BwhiteSpace%3Dwrap%3Brounded%3D0%3BfontSize%3D9%3B%22%20vertex%3D%221%22%20parent%3D%221%22%3E%3CmxGeometry%20x%3D%22210%22%20y%3D%22270%22%20width%3D%2220%22%20height%3D%2210%22%20as%3D%22geometry%22%2F%3E%3C%2FmxCell%3E%3C%2Froot%3E%3C%2FmxGraphModel%3E&lt;/span&gt;" style="text;html=1;align=center;verticalAlign=middle;whiteSpace=wrap;rounded=0;fontSize=9;" parent="1" vertex="1">
          <mxGeometry x="450" y="270" width="20" height="10" as="geometry" />
        </mxCell>
        <mxCell id="uLyZbbT2JMtD4a8MixMj-37" value="IE4" style="text;html=1;align=center;verticalAlign=middle;whiteSpace=wrap;rounded=0;fontSize=9;" parent="1" vertex="1">
          <mxGeometry x="520" y="270" width="20" height="10" as="geometry" />
        </mxCell>
        <mxCell id="uLyZbbT2JMtD4a8MixMj-38" value="&lt;font style=&quot;font-size: 10px;&quot;&gt;IE5&lt;/font&gt;" style="text;html=1;align=center;verticalAlign=middle;whiteSpace=wrap;rounded=0;fontSize=9;" parent="1" vertex="1">
          <mxGeometry x="570" y="270" width="20" height="10" as="geometry" />
        </mxCell>
        <mxCell id="uLyZbbT2JMtD4a8MixMj-39" value="&lt;font style=&quot;font-size: 10px;&quot;&gt;IEo&lt;/font&gt;" style="text;html=1;align=center;verticalAlign=middle;whiteSpace=wrap;rounded=0;fontSize=9;" parent="1" vertex="1">
          <mxGeometry x="680" y="275" width="20" height="10" as="geometry" />
        </mxCell>
        <mxCell id="uLyZbbT2JMtD4a8MixMj-40" value="" style="endArrow=none;html=1;rounded=0;" parent="1" edge="1">
          <mxGeometry width="50" height="50" relative="1" as="geometry">
            <mxPoint x="405" y="380" as="sourcePoint" />
            <mxPoint x="415" y="380" as="targetPoint" />
          </mxGeometry>
        </mxCell>
        <mxCell id="uLyZbbT2JMtD4a8MixMj-41" value="VCC" style="text;html=1;align=center;verticalAlign=middle;whiteSpace=wrap;rounded=0;" parent="1" vertex="1">
          <mxGeometry x="390" y="360" width="30" height="20" as="geometry" />
        </mxCell>
        <mxCell id="uLyZbbT2JMtD4a8MixMj-42" style="edgeStyle=orthogonalEdgeStyle;rounded=0;orthogonalLoop=1;jettySize=auto;html=1;exitX=0;exitY=0.5;exitDx=0;exitDy=0;entryX=0.66;entryY=1.005;entryDx=0;entryDy=0;entryPerimeter=0;endArrow=none;endFill=0;startArrow=classic;startFill=1;" parent="1" target="uLyZbbT2JMtD4a8MixMj-41" edge="1">
          <mxGeometry relative="1" as="geometry">
            <mxPoint x="440" y="400" as="sourcePoint" />
          </mxGeometry>
        </mxCell>
      </root>
    </mxGraphModel>
  </diagram>
  <diagram id="3qtV2D6QC8WRxblDKvqE" name="Страница 2">
    <mxGraphModel dx="978" dy="2225" grid="1" gridSize="10" guides="1" tooltips="1" connect="1" arrows="1" fold="1" page="1" pageScale="1" pageWidth="1169" pageHeight="1654" math="0" shadow="0">
      <root>
        <mxCell id="0" />
        <mxCell id="1" parent="0" />
        <mxCell id="0lFUQKCt9tWRBDmIXA40-161" value="" style="rounded=0;whiteSpace=wrap;html=1;" parent="1" vertex="1">
          <mxGeometry x="150" y="-90" width="190" height="90" as="geometry" />
        </mxCell>
        <mxCell id="0lFUQKCt9tWRBDmIXA40-84" style="edgeStyle=orthogonalEdgeStyle;rounded=0;orthogonalLoop=1;jettySize=auto;html=1;exitX=0.5;exitY=1;exitDx=0;exitDy=0;entryX=0.265;entryY=-0.038;entryDx=0;entryDy=0;entryPerimeter=0;" parent="1" source="0lFUQKCt9tWRBDmIXA40-2" target="0lFUQKCt9tWRBDmIXA40-38" edge="1">
          <mxGeometry relative="1" as="geometry" />
        </mxCell>
        <mxCell id="CV6mvbsiMCkfMjd8S5vn-44" style="edgeStyle=orthogonalEdgeStyle;rounded=0;orthogonalLoop=1;jettySize=auto;html=1;exitX=0.5;exitY=0;exitDx=0;exitDy=0;entryX=0.5;entryY=0;entryDx=0;entryDy=0;" parent="1" source="0lFUQKCt9tWRBDmIXA40-2" target="0lFUQKCt9tWRBDmIXA40-37" edge="1">
          <mxGeometry relative="1" as="geometry" />
        </mxCell>
        <mxCell id="0lFUQKCt9tWRBDmIXA40-2" value="CTC&lt;div&gt;cs1&lt;/div&gt;&lt;div&gt;Sys&lt;/div&gt;" style="rounded=0;whiteSpace=wrap;html=1;fillColor=#f5f5f5;strokeColor=#666666;fontColor=#333333;" parent="1" vertex="1">
          <mxGeometry x="240" y="80" width="40" height="80" as="geometry" />
        </mxCell>
        <mxCell id="0lFUQKCt9tWRBDmIXA40-90" style="edgeStyle=orthogonalEdgeStyle;rounded=0;orthogonalLoop=1;jettySize=auto;html=1;exitX=0.5;exitY=1;exitDx=0;exitDy=0;entryX=0.972;entryY=-0.181;entryDx=0;entryDy=0;entryPerimeter=0;" parent="1" source="0lFUQKCt9tWRBDmIXA40-5" target="0lFUQKCt9tWRBDmIXA40-38" edge="1">
          <mxGeometry relative="1" as="geometry" />
        </mxCell>
        <mxCell id="CV6mvbsiMCkfMjd8S5vn-70" style="edgeStyle=orthogonalEdgeStyle;rounded=0;orthogonalLoop=1;jettySize=auto;html=1;exitX=1;exitY=0.5;exitDx=0;exitDy=0;entryX=0;entryY=0.5;entryDx=0;entryDy=0;" parent="1" source="0lFUQKCt9tWRBDmIXA40-5" target="CV6mvbsiMCkfMjd8S5vn-69" edge="1">
          <mxGeometry relative="1" as="geometry">
            <Array as="points">
              <mxPoint x="780" y="120" />
              <mxPoint x="780" y="120" />
            </Array>
          </mxGeometry>
        </mxCell>
        <mxCell id="0lFUQKCt9tWRBDmIXA40-5" value="SIO&lt;div&gt;cs7&lt;/div&gt;&lt;div&gt;uart&lt;/div&gt;" style="rounded=0;whiteSpace=wrap;html=1;fillColor=#e1d5e7;strokeColor=#9673a6;" parent="1" vertex="1">
          <mxGeometry x="720" y="80" width="40" height="80" as="geometry" />
        </mxCell>
        <mxCell id="0lFUQKCt9tWRBDmIXA40-44" style="edgeStyle=orthogonalEdgeStyle;rounded=0;orthogonalLoop=1;jettySize=auto;html=1;exitX=0.5;exitY=0;exitDx=0;exitDy=0;entryX=0.5;entryY=1;entryDx=0;entryDy=0;" parent="1" source="0lFUQKCt9tWRBDmIXA40-7" target="0lFUQKCt9tWRBDmIXA40-42" edge="1">
          <mxGeometry relative="1" as="geometry" />
        </mxCell>
        <mxCell id="0lFUQKCt9tWRBDmIXA40-46" style="edgeStyle=orthogonalEdgeStyle;rounded=0;orthogonalLoop=1;jettySize=auto;html=1;exitX=0.5;exitY=0;exitDx=0;exitDy=0;entryX=0.5;entryY=1;entryDx=0;entryDy=0;" parent="1" source="0lFUQKCt9tWRBDmIXA40-7" target="0lFUQKCt9tWRBDmIXA40-43" edge="1">
          <mxGeometry relative="1" as="geometry" />
        </mxCell>
        <mxCell id="0lFUQKCt9tWRBDmIXA40-88" style="edgeStyle=orthogonalEdgeStyle;rounded=0;orthogonalLoop=1;jettySize=auto;html=1;exitX=0.5;exitY=1;exitDx=0;exitDy=0;entryX=0.736;entryY=0;entryDx=0;entryDy=0;entryPerimeter=0;" parent="1" source="0lFUQKCt9tWRBDmIXA40-7" target="0lFUQKCt9tWRBDmIXA40-38" edge="1">
          <mxGeometry relative="1" as="geometry" />
        </mxCell>
        <mxCell id="5LBfQkNzWHgMpl-Exuhz-2" style="edgeStyle=orthogonalEdgeStyle;rounded=0;orthogonalLoop=1;jettySize=auto;html=1;exitX=0.75;exitY=0;exitDx=0;exitDy=0;entryX=0;entryY=0.5;entryDx=0;entryDy=0;" edge="1" parent="1" source="0lFUQKCt9tWRBDmIXA40-7" target="5LBfQkNzWHgMpl-Exuhz-1">
          <mxGeometry relative="1" as="geometry">
            <Array as="points">
              <mxPoint x="590" y="70" />
              <mxPoint x="620" y="70" />
              <mxPoint x="620" />
            </Array>
          </mxGeometry>
        </mxCell>
        <mxCell id="0lFUQKCt9tWRBDmIXA40-7" value="PIO&lt;div&gt;cs5&lt;/div&gt;&lt;div&gt;KbRow&lt;/div&gt;" style="rounded=0;whiteSpace=wrap;html=1;fillColor=#fff2cc;strokeColor=#d6b656;" parent="1" vertex="1">
          <mxGeometry x="560" y="80" width="40" height="80" as="geometry" />
        </mxCell>
        <mxCell id="0lFUQKCt9tWRBDmIXA40-85" style="edgeStyle=orthogonalEdgeStyle;rounded=0;orthogonalLoop=1;jettySize=auto;html=1;exitX=0.5;exitY=1;exitDx=0;exitDy=0;entryX=0.382;entryY=-0.086;entryDx=0;entryDy=0;entryPerimeter=0;" parent="1" source="0lFUQKCt9tWRBDmIXA40-9" target="0lFUQKCt9tWRBDmIXA40-38" edge="1">
          <mxGeometry relative="1" as="geometry" />
        </mxCell>
        <mxCell id="0lFUQKCt9tWRBDmIXA40-263" style="edgeStyle=orthogonalEdgeStyle;rounded=0;orthogonalLoop=1;jettySize=auto;html=1;exitX=0.75;exitY=0;exitDx=0;exitDy=0;" parent="1" source="0lFUQKCt9tWRBDmIXA40-9" target="0lFUQKCt9tWRBDmIXA40-255" edge="1">
          <mxGeometry relative="1" as="geometry" />
        </mxCell>
        <mxCell id="0lFUQKCt9tWRBDmIXA40-264" style="edgeStyle=orthogonalEdgeStyle;rounded=0;orthogonalLoop=1;jettySize=auto;html=1;exitX=0.25;exitY=0;exitDx=0;exitDy=0;" parent="1" source="0lFUQKCt9tWRBDmIXA40-9" target="0lFUQKCt9tWRBDmIXA40-257" edge="1">
          <mxGeometry relative="1" as="geometry">
            <Array as="points">
              <mxPoint x="330" y="50" />
              <mxPoint x="245" y="50" />
            </Array>
          </mxGeometry>
        </mxCell>
        <mxCell id="0lFUQKCt9tWRBDmIXA40-9" value="PIO&lt;div&gt;cs2&lt;/div&gt;&lt;div&gt;Disp&lt;/div&gt;" style="rounded=0;whiteSpace=wrap;html=1;fillColor=#f5f5f5;strokeColor=#666666;fontColor=#333333;" parent="1" vertex="1">
          <mxGeometry x="320" y="80" width="40" height="80" as="geometry" />
        </mxCell>
        <mxCell id="0lFUQKCt9tWRBDmIXA40-47" style="edgeStyle=orthogonalEdgeStyle;rounded=0;orthogonalLoop=1;jettySize=auto;html=1;exitX=0.75;exitY=0;exitDx=0;exitDy=0;entryX=0;entryY=0.5;entryDx=0;entryDy=0;endArrow=none;endFill=0;startArrow=classic;startFill=1;" parent="1" source="0lFUQKCt9tWRBDmIXA40-11" target="0lFUQKCt9tWRBDmIXA40-42" edge="1">
          <mxGeometry relative="1" as="geometry">
            <Array as="points">
              <mxPoint x="510" y="20" />
            </Array>
          </mxGeometry>
        </mxCell>
        <mxCell id="0lFUQKCt9tWRBDmIXA40-48" style="edgeStyle=orthogonalEdgeStyle;rounded=0;orthogonalLoop=1;jettySize=auto;html=1;exitX=0.25;exitY=0;exitDx=0;exitDy=0;entryX=0;entryY=0.5;entryDx=0;entryDy=0;" parent="1" source="0lFUQKCt9tWRBDmIXA40-11" target="0lFUQKCt9tWRBDmIXA40-43" edge="1">
          <mxGeometry relative="1" as="geometry">
            <Array as="points">
              <mxPoint x="490" y="-60" />
            </Array>
          </mxGeometry>
        </mxCell>
        <mxCell id="0lFUQKCt9tWRBDmIXA40-87" style="edgeStyle=orthogonalEdgeStyle;rounded=0;orthogonalLoop=1;jettySize=auto;html=1;exitX=0.5;exitY=1;exitDx=0;exitDy=0;entryX=0.618;entryY=0;entryDx=0;entryDy=0;entryPerimeter=0;" parent="1" source="0lFUQKCt9tWRBDmIXA40-11" target="0lFUQKCt9tWRBDmIXA40-38" edge="1">
          <mxGeometry relative="1" as="geometry" />
        </mxCell>
        <mxCell id="0lFUQKCt9tWRBDmIXA40-11" value="PIO&lt;div&gt;cs4&lt;/div&gt;&lt;div&gt;KbCol&lt;/div&gt;" style="rounded=0;whiteSpace=wrap;html=1;fillColor=#fff2cc;strokeColor=#d6b656;" parent="1" vertex="1">
          <mxGeometry x="480" y="80" width="40" height="80" as="geometry" />
        </mxCell>
        <mxCell id="0lFUQKCt9tWRBDmIXA40-70" style="edgeStyle=orthogonalEdgeStyle;rounded=0;orthogonalLoop=1;jettySize=auto;html=1;exitX=0.5;exitY=0;exitDx=0;exitDy=0;entryX=0.5;entryY=0;entryDx=0;entryDy=0;" parent="1" source="0lFUQKCt9tWRBDmIXA40-21" target="0lFUQKCt9tWRBDmIXA40-5" edge="1">
          <mxGeometry relative="1" as="geometry" />
        </mxCell>
        <mxCell id="0lFUQKCt9tWRBDmIXA40-89" style="edgeStyle=orthogonalEdgeStyle;rounded=0;orthogonalLoop=1;jettySize=auto;html=1;exitX=0.5;exitY=1;exitDx=0;exitDy=0;entryX=0.853;entryY=0;entryDx=0;entryDy=0;entryPerimeter=0;" parent="1" source="0lFUQKCt9tWRBDmIXA40-21" target="0lFUQKCt9tWRBDmIXA40-38" edge="1">
          <mxGeometry relative="1" as="geometry" />
        </mxCell>
        <mxCell id="0lFUQKCt9tWRBDmIXA40-21" value="CTC&lt;div&gt;cs6&lt;/div&gt;&lt;div&gt;usart&lt;/div&gt;" style="rounded=0;whiteSpace=wrap;html=1;fillColor=#ffe6cc;strokeColor=#d79b00;" parent="1" vertex="1">
          <mxGeometry x="640" y="80" width="40" height="80" as="geometry" />
        </mxCell>
        <mxCell id="0lFUQKCt9tWRBDmIXA40-60" style="edgeStyle=orthogonalEdgeStyle;rounded=0;orthogonalLoop=1;jettySize=auto;html=1;exitX=0.25;exitY=0;exitDx=0;exitDy=0;entryX=0;entryY=1;entryDx=0;entryDy=0;" parent="1" source="0lFUQKCt9tWRBDmIXA40-22" target="0lFUQKCt9tWRBDmIXA40-59" edge="1">
          <mxGeometry relative="1" as="geometry" />
        </mxCell>
        <mxCell id="0lFUQKCt9tWRBDmIXA40-61" style="edgeStyle=orthogonalEdgeStyle;rounded=0;orthogonalLoop=1;jettySize=auto;html=1;exitX=0.75;exitY=0;exitDx=0;exitDy=0;entryX=1;entryY=1;entryDx=0;entryDy=0;" parent="1" source="0lFUQKCt9tWRBDmIXA40-22" target="0lFUQKCt9tWRBDmIXA40-59" edge="1">
          <mxGeometry relative="1" as="geometry" />
        </mxCell>
        <mxCell id="0lFUQKCt9tWRBDmIXA40-86" style="edgeStyle=orthogonalEdgeStyle;rounded=0;orthogonalLoop=1;jettySize=auto;html=1;exitX=0.5;exitY=1;exitDx=0;exitDy=0;entryX=0.5;entryY=0;entryDx=0;entryDy=0;" parent="1" source="0lFUQKCt9tWRBDmIXA40-22" target="0lFUQKCt9tWRBDmIXA40-38" edge="1">
          <mxGeometry relative="1" as="geometry" />
        </mxCell>
        <mxCell id="0lFUQKCt9tWRBDmIXA40-22" value="PIO&lt;div&gt;cs3&lt;/div&gt;&lt;div&gt;Motor&lt;/div&gt;" style="rounded=0;whiteSpace=wrap;html=1;fillColor=#f5f5f5;strokeColor=#666666;fontColor=#333333;" parent="1" vertex="1">
          <mxGeometry x="400" y="80" width="40" height="80" as="geometry" />
        </mxCell>
        <mxCell id="0lFUQKCt9tWRBDmIXA40-83" style="edgeStyle=orthogonalEdgeStyle;rounded=0;orthogonalLoop=1;jettySize=auto;html=1;exitX=0.5;exitY=1;exitDx=0;exitDy=0;entryX=0.147;entryY=-0.038;entryDx=0;entryDy=0;entryPerimeter=0;" parent="1" source="0lFUQKCt9tWRBDmIXA40-37" target="0lFUQKCt9tWRBDmIXA40-38" edge="1">
          <mxGeometry relative="1" as="geometry" />
        </mxCell>
        <mxCell id="CV6mvbsiMCkfMjd8S5vn-53" style="edgeStyle=orthogonalEdgeStyle;rounded=0;orthogonalLoop=1;jettySize=auto;html=1;exitX=1;exitY=0.5;exitDx=0;exitDy=0;entryX=0;entryY=0.5;entryDx=0;entryDy=0;" parent="1" source="0lFUQKCt9tWRBDmIXA40-37" target="0lFUQKCt9tWRBDmIXA40-2" edge="1">
          <mxGeometry relative="1" as="geometry" />
        </mxCell>
        <mxCell id="CV6mvbsiMCkfMjd8S5vn-56" style="edgeStyle=orthogonalEdgeStyle;rounded=0;orthogonalLoop=1;jettySize=auto;html=1;exitX=0;exitY=0.5;exitDx=0;exitDy=0;entryX=1;entryY=0.5;entryDx=0;entryDy=0;" parent="1" source="0lFUQKCt9tWRBDmIXA40-37" target="0lFUQKCt9tWRBDmIXA40-41" edge="1">
          <mxGeometry relative="1" as="geometry" />
        </mxCell>
        <mxCell id="0lFUQKCt9tWRBDmIXA40-37" value="CPU&lt;br&gt;U880" style="rounded=0;whiteSpace=wrap;html=1;fillColor=#dae8fc;strokeColor=#6c8ebf;" parent="1" vertex="1">
          <mxGeometry x="160" y="80" width="40" height="80" as="geometry" />
        </mxCell>
        <mxCell id="0lFUQKCt9tWRBDmIXA40-38" value="16 bit Address Line/8bit Data Line" style="rounded=0;whiteSpace=wrap;html=1;fontSize=10;" parent="1" vertex="1">
          <mxGeometry x="80" y="200" width="680" height="10" as="geometry" />
        </mxCell>
        <mxCell id="0lFUQKCt9tWRBDmIXA40-40" value="ROM&lt;br&gt;14KB" style="rounded=0;whiteSpace=wrap;html=1;fillColor=#d5e8d4;strokeColor=#82b366;" parent="1" vertex="1">
          <mxGeometry x="80" y="-40" width="40" height="80" as="geometry" />
        </mxCell>
        <mxCell id="0lFUQKCt9tWRBDmIXA40-82" style="edgeStyle=orthogonalEdgeStyle;rounded=0;orthogonalLoop=1;jettySize=auto;html=1;exitX=0.5;exitY=1;exitDx=0;exitDy=0;entryX=0.029;entryY=-0.133;entryDx=0;entryDy=0;entryPerimeter=0;" parent="1" source="0lFUQKCt9tWRBDmIXA40-41" target="0lFUQKCt9tWRBDmIXA40-38" edge="1">
          <mxGeometry relative="1" as="geometry" />
        </mxCell>
        <mxCell id="0lFUQKCt9tWRBDmIXA40-41" value="RAM&lt;br&gt;8KB" style="rounded=0;whiteSpace=wrap;html=1;fillColor=#d5e8d4;strokeColor=#82b366;" parent="1" vertex="1">
          <mxGeometry x="80" y="80" width="40" height="80" as="geometry" />
        </mxCell>
        <mxCell id="0lFUQKCt9tWRBDmIXA40-42" value="[А-Я&lt;br&gt;0-9]" style="rounded=0;whiteSpace=wrap;html=1;" parent="1" vertex="1">
          <mxGeometry x="560" width="40" height="40" as="geometry" />
        </mxCell>
        <mxCell id="0lFUQKCt9tWRBDmIXA40-43" value="CMD" style="rounded=0;whiteSpace=wrap;html=1;" parent="1" vertex="1">
          <mxGeometry x="560" y="-80" width="40" height="40" as="geometry" />
        </mxCell>
        <mxCell id="0lFUQKCt9tWRBDmIXA40-49" value="A" style="text;html=1;strokeColor=none;fillColor=none;align=center;verticalAlign=middle;whiteSpace=wrap;rounded=0;" parent="1" vertex="1">
          <mxGeometry x="540" y="50" width="60" height="30" as="geometry" />
        </mxCell>
        <mxCell id="0lFUQKCt9tWRBDmIXA40-50" value="B" style="text;html=1;strokeColor=none;fillColor=none;align=center;verticalAlign=middle;whiteSpace=wrap;rounded=0;" parent="1" vertex="1">
          <mxGeometry x="490" y="50" width="60" height="30" as="geometry" />
        </mxCell>
        <mxCell id="0lFUQKCt9tWRBDmIXA40-54" value="A" style="text;html=1;strokeColor=none;fillColor=none;align=center;verticalAlign=middle;whiteSpace=wrap;rounded=0;" parent="1" vertex="1">
          <mxGeometry x="450" y="50" width="60" height="30" as="geometry" />
        </mxCell>
        <mxCell id="0lFUQKCt9tWRBDmIXA40-69" style="edgeStyle=orthogonalEdgeStyle;rounded=0;orthogonalLoop=1;jettySize=auto;html=1;exitX=1;exitY=0.5;exitDx=0;exitDy=0;entryX=-0.006;entryY=0.121;entryDx=0;entryDy=0;entryPerimeter=0;" parent="1" source="0lFUQKCt9tWRBDmIXA40-55" target="0lFUQKCt9tWRBDmIXA40-59" edge="1">
          <mxGeometry relative="1" as="geometry" />
        </mxCell>
        <mxCell id="0lFUQKCt9tWRBDmIXA40-55" value="&lt;font style=&quot;font-size: 20px;&quot;&gt;M&lt;/font&gt;" style="verticalLabelPosition=middle;shadow=0;dashed=0;align=center;html=1;verticalAlign=middle;strokeWidth=1;shape=ellipse;fontSize=32;perimeter=ellipsePerimeter;" parent="1" vertex="1">
          <mxGeometry x="370" y="-75" width="30" height="30" as="geometry" />
        </mxCell>
        <mxCell id="0lFUQKCt9tWRBDmIXA40-65" style="edgeStyle=orthogonalEdgeStyle;rounded=0;orthogonalLoop=1;jettySize=auto;html=1;exitX=0;exitY=0.5;exitDx=0;exitDy=0;entryX=0.994;entryY=0.115;entryDx=0;entryDy=0;entryPerimeter=0;" parent="1" source="0lFUQKCt9tWRBDmIXA40-56" target="0lFUQKCt9tWRBDmIXA40-59" edge="1">
          <mxGeometry relative="1" as="geometry" />
        </mxCell>
        <mxCell id="0lFUQKCt9tWRBDmIXA40-56" value="&lt;font style=&quot;font-size: 20px;&quot;&gt;M&lt;/font&gt;" style="verticalLabelPosition=middle;shadow=0;dashed=0;align=center;html=1;verticalAlign=middle;strokeWidth=1;shape=ellipse;fontSize=32;perimeter=ellipsePerimeter;" parent="1" vertex="1">
          <mxGeometry x="440" y="-75" width="30" height="30" as="geometry" />
        </mxCell>
        <mxCell id="0lFUQKCt9tWRBDmIXA40-67" style="edgeStyle=orthogonalEdgeStyle;rounded=0;orthogonalLoop=1;jettySize=auto;html=1;exitX=1;exitY=0.5;exitDx=0;exitDy=0;entryX=-0.033;entryY=0.463;entryDx=0;entryDy=0;entryPerimeter=0;" parent="1" source="0lFUQKCt9tWRBDmIXA40-57" target="0lFUQKCt9tWRBDmIXA40-59" edge="1">
          <mxGeometry relative="1" as="geometry" />
        </mxCell>
        <mxCell id="0lFUQKCt9tWRBDmIXA40-57" value="&lt;font style=&quot;font-size: 20px;&quot;&gt;M&lt;/font&gt;" style="verticalLabelPosition=middle;shadow=0;dashed=0;align=center;html=1;verticalAlign=middle;strokeWidth=1;shape=ellipse;fontSize=32;perimeter=ellipsePerimeter;" parent="1" vertex="1">
          <mxGeometry x="370" y="-30" width="30" height="30" as="geometry" />
        </mxCell>
        <mxCell id="0lFUQKCt9tWRBDmIXA40-66" style="edgeStyle=orthogonalEdgeStyle;rounded=0;orthogonalLoop=1;jettySize=auto;html=1;exitX=0;exitY=0.5;exitDx=0;exitDy=0;entryX=1.036;entryY=0.461;entryDx=0;entryDy=0;entryPerimeter=0;" parent="1" source="0lFUQKCt9tWRBDmIXA40-58" target="0lFUQKCt9tWRBDmIXA40-59" edge="1">
          <mxGeometry relative="1" as="geometry" />
        </mxCell>
        <mxCell id="0lFUQKCt9tWRBDmIXA40-58" value="&lt;font style=&quot;font-size: 20px;&quot;&gt;M&lt;/font&gt;" style="verticalLabelPosition=middle;shadow=0;dashed=0;align=center;html=1;verticalAlign=middle;strokeWidth=1;shape=ellipse;fontSize=32;perimeter=ellipsePerimeter;" parent="1" vertex="1">
          <mxGeometry x="440" y="-30" width="30" height="30" as="geometry" />
        </mxCell>
        <mxCell id="0lFUQKCt9tWRBDmIXA40-59" value="Драйверы" style="rounded=0;whiteSpace=wrap;html=1;horizontal=0;" parent="1" vertex="1">
          <mxGeometry x="410" y="-75" width="20" height="130" as="geometry" />
        </mxCell>
        <mxCell id="0lFUQKCt9tWRBDmIXA40-62" value="A" style="text;html=1;strokeColor=none;fillColor=none;align=center;verticalAlign=middle;whiteSpace=wrap;rounded=0;" parent="1" vertex="1">
          <mxGeometry x="370" y="50" width="60" height="30" as="geometry" />
        </mxCell>
        <mxCell id="0lFUQKCt9tWRBDmIXA40-63" value="B" style="text;html=1;strokeColor=none;fillColor=none;align=center;verticalAlign=middle;whiteSpace=wrap;rounded=0;" parent="1" vertex="1">
          <mxGeometry x="410" y="50" width="60" height="30" as="geometry" />
        </mxCell>
        <mxCell id="0lFUQKCt9tWRBDmIXA40-71" value="RS-232" style="text;html=1;strokeColor=none;fillColor=none;align=center;verticalAlign=middle;whiteSpace=wrap;rounded=0;" parent="1" vertex="1">
          <mxGeometry x="860" y="105" width="60" height="30" as="geometry" />
        </mxCell>
        <mxCell id="0lFUQKCt9tWRBDmIXA40-73" value="Debug ROM" style="rounded=0;whiteSpace=wrap;html=1;fillColor=#f8cecc;strokeColor=#b85450;" parent="1" vertex="1">
          <mxGeometry x="80" y="40" width="40" height="40" as="geometry" />
        </mxCell>
        <mxCell id="0lFUQKCt9tWRBDmIXA40-74" value="0000h" style="text;html=1;strokeColor=none;fillColor=none;align=center;verticalAlign=middle;whiteSpace=wrap;rounded=0;" parent="1" vertex="1">
          <mxGeometry x="30" y="-60" width="60" height="30" as="geometry" />
        </mxCell>
        <mxCell id="0lFUQKCt9tWRBDmIXA40-75" value="3800h" style="text;html=1;strokeColor=none;fillColor=none;align=center;verticalAlign=middle;whiteSpace=wrap;rounded=0;" parent="1" vertex="1">
          <mxGeometry x="30" y="20" width="60" height="30" as="geometry" />
        </mxCell>
        <mxCell id="0lFUQKCt9tWRBDmIXA40-76" value="4000h" style="text;html=1;strokeColor=none;fillColor=none;align=center;verticalAlign=middle;whiteSpace=wrap;rounded=0;" parent="1" vertex="1">
          <mxGeometry x="30" y="60" width="60" height="30" as="geometry" />
        </mxCell>
        <mxCell id="0lFUQKCt9tWRBDmIXA40-77" value="6000h" style="text;html=1;strokeColor=none;fillColor=none;align=center;verticalAlign=middle;whiteSpace=wrap;rounded=0;" parent="1" vertex="1">
          <mxGeometry x="30" y="135" width="60" height="30" as="geometry" />
        </mxCell>
        <mxCell id="0lFUQKCt9tWRBDmIXA40-162" value="" style="pointerEvents=1;verticalLabelPosition=bottom;shadow=0;dashed=0;align=center;html=1;verticalAlign=top;shape=mxgraph.electrical.electro-mechanical.buzzer;rotation=90;" parent="1" vertex="1">
          <mxGeometry x="310" y="-85" width="20" height="20" as="geometry" />
        </mxCell>
        <mxCell id="0lFUQKCt9tWRBDmIXA40-234" value="" style="rounded=0;whiteSpace=wrap;html=1;strokeWidth=1;" parent="1" vertex="1">
          <mxGeometry x="160" y="-70" width="10" height="10" as="geometry" />
        </mxCell>
        <mxCell id="0lFUQKCt9tWRBDmIXA40-235" value="" style="rounded=0;whiteSpace=wrap;html=1;strokeWidth=1;" parent="1" vertex="1">
          <mxGeometry x="160" y="-80" width="10" height="10" as="geometry" />
        </mxCell>
        <mxCell id="0lFUQKCt9tWRBDmIXA40-236" value="" style="rounded=0;whiteSpace=wrap;html=1;strokeWidth=1;" parent="1" vertex="1">
          <mxGeometry x="170" y="-80" width="10" height="10" as="geometry" />
        </mxCell>
        <mxCell id="0lFUQKCt9tWRBDmIXA40-237" value="" style="rounded=0;whiteSpace=wrap;html=1;strokeWidth=1;" parent="1" vertex="1">
          <mxGeometry x="190" y="-80" width="10" height="10" as="geometry" />
        </mxCell>
        <mxCell id="0lFUQKCt9tWRBDmIXA40-238" value="" style="rounded=0;whiteSpace=wrap;html=1;strokeWidth=1;" parent="1" vertex="1">
          <mxGeometry x="200" y="-80" width="10" height="10" as="geometry" />
        </mxCell>
        <mxCell id="0lFUQKCt9tWRBDmIXA40-239" value="" style="rounded=0;whiteSpace=wrap;html=1;strokeWidth=1;" parent="1" vertex="1">
          <mxGeometry x="200" y="-70" width="10" height="10" as="geometry" />
        </mxCell>
        <mxCell id="0lFUQKCt9tWRBDmIXA40-240" value="" style="rounded=0;whiteSpace=wrap;html=1;strokeWidth=1;" parent="1" vertex="1">
          <mxGeometry x="180" y="-70" width="10" height="10" as="geometry" />
        </mxCell>
        <mxCell id="0lFUQKCt9tWRBDmIXA40-241" value="" style="rounded=0;whiteSpace=wrap;html=1;strokeWidth=1;" parent="1" vertex="1">
          <mxGeometry x="170" y="-60" width="10" height="10" as="geometry" />
        </mxCell>
        <mxCell id="0lFUQKCt9tWRBDmIXA40-242" value="" style="rounded=0;whiteSpace=wrap;html=1;strokeWidth=1;" parent="1" vertex="1">
          <mxGeometry x="180" y="-60" width="10" height="10" as="geometry" />
        </mxCell>
        <mxCell id="0lFUQKCt9tWRBDmIXA40-243" value="" style="rounded=0;whiteSpace=wrap;html=1;strokeWidth=1;" parent="1" vertex="1">
          <mxGeometry x="190" y="-60" width="10" height="10" as="geometry" />
        </mxCell>
        <mxCell id="0lFUQKCt9tWRBDmIXA40-244" value="" style="rounded=0;whiteSpace=wrap;html=1;strokeWidth=1;" parent="1" vertex="1">
          <mxGeometry x="170" y="-50" width="10" height="10" as="geometry" />
        </mxCell>
        <mxCell id="0lFUQKCt9tWRBDmIXA40-245" value="" style="rounded=0;whiteSpace=wrap;html=1;strokeWidth=1;" parent="1" vertex="1">
          <mxGeometry x="180" y="-50" width="10" height="10" as="geometry" />
        </mxCell>
        <mxCell id="0lFUQKCt9tWRBDmIXA40-246" value="" style="rounded=0;whiteSpace=wrap;html=1;strokeWidth=1;" parent="1" vertex="1">
          <mxGeometry x="190" y="-50" width="10" height="10" as="geometry" />
        </mxCell>
        <mxCell id="0lFUQKCt9tWRBDmIXA40-248" value="" style="rounded=0;whiteSpace=wrap;html=1;strokeWidth=1;" parent="1" vertex="1">
          <mxGeometry x="170" y="-30" width="10" height="10" as="geometry" />
        </mxCell>
        <mxCell id="0lFUQKCt9tWRBDmIXA40-249" value="" style="rounded=0;whiteSpace=wrap;html=1;strokeWidth=1;" parent="1" vertex="1">
          <mxGeometry x="180" y="-30" width="10" height="10" as="geometry" />
        </mxCell>
        <mxCell id="0lFUQKCt9tWRBDmIXA40-250" value="" style="rounded=0;whiteSpace=wrap;html=1;strokeWidth=1;" parent="1" vertex="1">
          <mxGeometry x="190" y="-30" width="10" height="10" as="geometry" />
        </mxCell>
        <mxCell id="0lFUQKCt9tWRBDmIXA40-251" value="" style="rounded=0;whiteSpace=wrap;html=1;strokeWidth=1;" parent="1" vertex="1">
          <mxGeometry x="170" y="-20" width="10" height="10" as="geometry" />
        </mxCell>
        <mxCell id="0lFUQKCt9tWRBDmIXA40-252" value="" style="rounded=0;whiteSpace=wrap;html=1;strokeWidth=1;" parent="1" vertex="1">
          <mxGeometry x="180" y="-20" width="10" height="10" as="geometry" />
        </mxCell>
        <mxCell id="0lFUQKCt9tWRBDmIXA40-253" value="" style="rounded=0;whiteSpace=wrap;html=1;strokeWidth=1;" parent="1" vertex="1">
          <mxGeometry x="190" y="-20" width="10" height="10" as="geometry" />
        </mxCell>
        <mxCell id="0lFUQKCt9tWRBDmIXA40-218" value="" style="rounded=0;whiteSpace=wrap;html=1;strokeWidth=1;fillColor=#a20025;fontColor=#ffffff;strokeColor=#a20025;" parent="1" vertex="1">
          <mxGeometry x="160" y="-60" width="10" height="10" as="geometry" />
        </mxCell>
        <mxCell id="0lFUQKCt9tWRBDmIXA40-219" value="" style="rounded=0;whiteSpace=wrap;html=1;strokeWidth=1;fillColor=#a20025;fontColor=#ffffff;strokeColor=#a20025;" parent="1" vertex="1">
          <mxGeometry x="160" y="-50" width="10" height="10" as="geometry" />
        </mxCell>
        <mxCell id="0lFUQKCt9tWRBDmIXA40-220" value="" style="rounded=0;whiteSpace=wrap;html=1;strokeWidth=1;fillColor=#a20025;fontColor=#ffffff;strokeColor=#a20025;" parent="1" vertex="1">
          <mxGeometry x="160" y="-40" width="10" height="10" as="geometry" />
        </mxCell>
        <mxCell id="0lFUQKCt9tWRBDmIXA40-221" value="" style="rounded=0;whiteSpace=wrap;html=1;strokeWidth=1;fillColor=#a20025;fontColor=#ffffff;strokeColor=#a20025;" parent="1" vertex="1">
          <mxGeometry x="160" y="-30" width="10" height="10" as="geometry" />
        </mxCell>
        <mxCell id="0lFUQKCt9tWRBDmIXA40-222" value="" style="rounded=0;whiteSpace=wrap;html=1;strokeWidth=1;fillColor=#a20025;fontColor=#ffffff;strokeColor=#a20025;" parent="1" vertex="1">
          <mxGeometry x="160" y="-20" width="10" height="10" as="geometry" />
        </mxCell>
        <mxCell id="0lFUQKCt9tWRBDmIXA40-223" value="" style="rounded=0;whiteSpace=wrap;html=1;strokeWidth=1;fillColor=#a20025;fontColor=#ffffff;strokeColor=#a20025;" parent="1" vertex="1">
          <mxGeometry x="180" y="-80" width="10" height="10" as="geometry" />
        </mxCell>
        <mxCell id="0lFUQKCt9tWRBDmIXA40-224" value="" style="rounded=0;whiteSpace=wrap;html=1;strokeWidth=1;fillColor=#a20025;fontColor=#ffffff;strokeColor=#a20025;" parent="1" vertex="1">
          <mxGeometry x="170" y="-70" width="10" height="10" as="geometry" />
        </mxCell>
        <mxCell id="0lFUQKCt9tWRBDmIXA40-225" value="" style="rounded=0;whiteSpace=wrap;html=1;strokeWidth=1;fillColor=#a20025;fontColor=#ffffff;strokeColor=#a20025;" parent="1" vertex="1">
          <mxGeometry x="190" y="-70" width="10" height="10" as="geometry" />
        </mxCell>
        <mxCell id="0lFUQKCt9tWRBDmIXA40-226" value="" style="rounded=0;whiteSpace=wrap;html=1;strokeWidth=1;fillColor=#a20025;fontColor=#ffffff;strokeColor=#a20025;" parent="1" vertex="1">
          <mxGeometry x="200" y="-60" width="10" height="10" as="geometry" />
        </mxCell>
        <mxCell id="0lFUQKCt9tWRBDmIXA40-227" value="" style="rounded=0;whiteSpace=wrap;html=1;strokeWidth=1;fillColor=#a20025;fontColor=#ffffff;strokeColor=#a20025;" parent="1" vertex="1">
          <mxGeometry x="200" y="-50" width="10" height="10" as="geometry" />
        </mxCell>
        <mxCell id="0lFUQKCt9tWRBDmIXA40-228" value="" style="rounded=0;whiteSpace=wrap;html=1;strokeWidth=1;fillColor=#a20025;fontColor=#ffffff;strokeColor=#a20025;" parent="1" vertex="1">
          <mxGeometry x="200" y="-40" width="10" height="10" as="geometry" />
        </mxCell>
        <mxCell id="0lFUQKCt9tWRBDmIXA40-229" value="" style="rounded=0;whiteSpace=wrap;html=1;strokeWidth=1;fillColor=#a20025;fontColor=#ffffff;strokeColor=#a20025;" parent="1" vertex="1">
          <mxGeometry x="200" y="-30" width="10" height="10" as="geometry" />
        </mxCell>
        <mxCell id="0lFUQKCt9tWRBDmIXA40-230" value="" style="rounded=0;whiteSpace=wrap;html=1;strokeWidth=1;fillColor=#a20025;fontColor=#ffffff;strokeColor=#a20025;" parent="1" vertex="1">
          <mxGeometry x="200" y="-20" width="10" height="10" as="geometry" />
        </mxCell>
        <mxCell id="0lFUQKCt9tWRBDmIXA40-231" value="" style="rounded=0;whiteSpace=wrap;html=1;strokeWidth=1;fillColor=#a20025;fontColor=#ffffff;strokeColor=#a20025;" parent="1" vertex="1">
          <mxGeometry x="170" y="-40" width="10" height="10" as="geometry" />
        </mxCell>
        <mxCell id="0lFUQKCt9tWRBDmIXA40-232" value="" style="rounded=0;whiteSpace=wrap;html=1;strokeWidth=1;fillColor=#a20025;fontColor=#ffffff;strokeColor=#a20025;" parent="1" vertex="1">
          <mxGeometry x="180" y="-40" width="10" height="10" as="geometry" />
        </mxCell>
        <mxCell id="0lFUQKCt9tWRBDmIXA40-233" value="" style="rounded=0;whiteSpace=wrap;html=1;strokeWidth=1;fillColor=#a20025;fontColor=#ffffff;strokeColor=#a20025;" parent="1" vertex="1">
          <mxGeometry x="190" y="-40" width="10" height="10" as="geometry" />
        </mxCell>
        <mxCell id="0lFUQKCt9tWRBDmIXA40-259" style="edgeStyle=orthogonalEdgeStyle;rounded=0;orthogonalLoop=1;jettySize=auto;html=1;exitX=0;exitY=0.5;exitDx=0;exitDy=0;entryX=0.985;entryY=0.201;entryDx=0;entryDy=0;entryPerimeter=0;" parent="1" source="0lFUQKCt9tWRBDmIXA40-254" target="0lFUQKCt9tWRBDmIXA40-257" edge="1">
          <mxGeometry relative="1" as="geometry" />
        </mxCell>
        <mxCell id="0lFUQKCt9tWRBDmIXA40-254" value="ПЗУ" style="rounded=0;whiteSpace=wrap;html=1;" parent="1" vertex="1">
          <mxGeometry x="280" y="-60" width="50" height="20" as="geometry" />
        </mxCell>
        <mxCell id="0lFUQKCt9tWRBDmIXA40-260" style="edgeStyle=orthogonalEdgeStyle;rounded=0;orthogonalLoop=1;jettySize=auto;html=1;exitX=0.5;exitY=0;exitDx=0;exitDy=0;entryX=0.5;entryY=1;entryDx=0;entryDy=0;" parent="1" source="0lFUQKCt9tWRBDmIXA40-255" target="0lFUQKCt9tWRBDmIXA40-254" edge="1">
          <mxGeometry relative="1" as="geometry" />
        </mxCell>
        <mxCell id="0lFUQKCt9tWRBDmIXA40-255" value="ОЗУ" style="rounded=0;whiteSpace=wrap;html=1;" parent="1" vertex="1">
          <mxGeometry x="280" y="-30" width="50" height="20" as="geometry" />
        </mxCell>
        <mxCell id="0lFUQKCt9tWRBDmIXA40-256" value="Индикатор" style="text;html=1;strokeColor=none;fillColor=none;align=center;verticalAlign=middle;whiteSpace=wrap;rounded=0;" parent="1" vertex="1">
          <mxGeometry x="220" y="-100" width="60" height="30" as="geometry" />
        </mxCell>
        <mxCell id="0lFUQKCt9tWRBDmIXA40-258" style="edgeStyle=orthogonalEdgeStyle;rounded=0;orthogonalLoop=1;jettySize=auto;html=1;exitX=0;exitY=0.5;exitDx=0;exitDy=0;entryX=1;entryY=0.5;entryDx=0;entryDy=0;" parent="1" source="0lFUQKCt9tWRBDmIXA40-257" target="0lFUQKCt9tWRBDmIXA40-228" edge="1">
          <mxGeometry relative="1" as="geometry" />
        </mxCell>
        <mxCell id="0lFUQKCt9tWRBDmIXA40-257" value="&lt;font style=&quot;font-size: 6px;&quot;&gt;Динамическая индикация&lt;/font&gt;" style="rounded=0;whiteSpace=wrap;html=1;" parent="1" vertex="1">
          <mxGeometry x="220" y="-60" width="50" height="50" as="geometry" />
        </mxCell>
        <mxCell id="0lFUQKCt9tWRBDmIXA40-265" value="A" style="text;html=1;strokeColor=none;fillColor=none;align=center;verticalAlign=middle;whiteSpace=wrap;rounded=0;" parent="1" vertex="1">
          <mxGeometry x="330" y="50" width="60" height="30" as="geometry" />
        </mxCell>
        <mxCell id="0lFUQKCt9tWRBDmIXA40-266" value="B" style="text;html=1;strokeColor=none;fillColor=none;align=center;verticalAlign=middle;whiteSpace=wrap;rounded=0;" parent="1" vertex="1">
          <mxGeometry x="290" y="50" width="60" height="30" as="geometry" />
        </mxCell>
        <mxCell id="CV6mvbsiMCkfMjd8S5vn-37" value="Клавиатура" style="text;html=1;strokeColor=none;fillColor=none;align=center;verticalAlign=middle;whiteSpace=wrap;rounded=0;" parent="1" vertex="1">
          <mxGeometry x="550" y="-110" width="60" height="30" as="geometry" />
        </mxCell>
        <mxCell id="CV6mvbsiMCkfMjd8S5vn-38" style="edgeStyle=orthogonalEdgeStyle;rounded=0;orthogonalLoop=1;jettySize=auto;html=1;exitX=0.25;exitY=0;exitDx=0;exitDy=0;entryX=0;entryY=0.5;entryDx=0;entryDy=0;" parent="1" edge="1">
          <mxGeometry relative="1" as="geometry">
            <mxPoint x="490" y="80" as="sourcePoint" />
            <mxPoint x="560" y="-60" as="targetPoint" />
            <Array as="points">
              <mxPoint x="490" y="-60" />
            </Array>
          </mxGeometry>
        </mxCell>
        <mxCell id="CV6mvbsiMCkfMjd8S5vn-39" style="edgeStyle=orthogonalEdgeStyle;rounded=0;orthogonalLoop=1;jettySize=auto;html=1;exitX=0.25;exitY=0;exitDx=0;exitDy=0;entryX=0;entryY=0.5;entryDx=0;entryDy=0;" parent="1" edge="1">
          <mxGeometry relative="1" as="geometry">
            <mxPoint x="490" y="80" as="sourcePoint" />
            <mxPoint x="560" y="-60" as="targetPoint" />
            <Array as="points">
              <mxPoint x="490" y="-60" />
            </Array>
          </mxGeometry>
        </mxCell>
        <mxCell id="CV6mvbsiMCkfMjd8S5vn-40" style="edgeStyle=orthogonalEdgeStyle;rounded=0;orthogonalLoop=1;jettySize=auto;html=1;exitX=0.25;exitY=0;exitDx=0;exitDy=0;entryX=0;entryY=0.5;entryDx=0;entryDy=0;" parent="1" edge="1">
          <mxGeometry relative="1" as="geometry">
            <mxPoint x="490" y="80" as="sourcePoint" />
            <mxPoint x="560" y="-60" as="targetPoint" />
            <Array as="points">
              <mxPoint x="490" y="-60" />
            </Array>
          </mxGeometry>
        </mxCell>
        <mxCell id="CV6mvbsiMCkfMjd8S5vn-41" style="edgeStyle=orthogonalEdgeStyle;rounded=0;orthogonalLoop=1;jettySize=auto;html=1;exitX=0.25;exitY=0;exitDx=0;exitDy=0;entryX=0;entryY=0.5;entryDx=0;entryDy=0;startArrow=classic;startFill=1;endArrow=none;endFill=0;" parent="1" edge="1">
          <mxGeometry relative="1" as="geometry">
            <mxPoint x="490" y="80" as="sourcePoint" />
            <mxPoint x="560" y="-60" as="targetPoint" />
            <Array as="points">
              <mxPoint x="490" y="-60" />
            </Array>
          </mxGeometry>
        </mxCell>
        <mxCell id="CV6mvbsiMCkfMjd8S5vn-45" value="INT" style="text;html=1;strokeColor=none;fillColor=none;align=center;verticalAlign=middle;whiteSpace=wrap;rounded=0;" parent="1" vertex="1">
          <mxGeometry x="170" y="30" width="60" height="30" as="geometry" />
        </mxCell>
        <mxCell id="CV6mvbsiMCkfMjd8S5vn-46" value="00h-&lt;br&gt;03h" style="text;html=1;strokeColor=none;fillColor=none;align=center;verticalAlign=middle;whiteSpace=wrap;rounded=0;" parent="1" vertex="1">
          <mxGeometry x="250" y="160" width="60" height="30" as="geometry" />
        </mxCell>
        <mxCell id="CV6mvbsiMCkfMjd8S5vn-47" value="00h-&lt;br&gt;03h" style="text;html=1;strokeColor=none;fillColor=none;align=center;verticalAlign=middle;whiteSpace=wrap;rounded=0;" parent="1" vertex="1">
          <mxGeometry x="330" y="160" width="60" height="30" as="geometry" />
        </mxCell>
        <mxCell id="CV6mvbsiMCkfMjd8S5vn-48" value="08h-&lt;br&gt;0Bh" style="text;html=1;strokeColor=none;fillColor=none;align=center;verticalAlign=middle;whiteSpace=wrap;rounded=0;" parent="1" vertex="1">
          <mxGeometry x="410" y="160" width="60" height="30" as="geometry" />
        </mxCell>
        <mxCell id="CV6mvbsiMCkfMjd8S5vn-49" value="0Ch-&lt;br&gt;0Fh" style="text;html=1;strokeColor=none;fillColor=none;align=center;verticalAlign=middle;whiteSpace=wrap;rounded=0;" parent="1" vertex="1">
          <mxGeometry x="490" y="160" width="60" height="30" as="geometry" />
        </mxCell>
        <mxCell id="CV6mvbsiMCkfMjd8S5vn-50" value="10h&lt;br&gt;13h" style="text;html=1;strokeColor=none;fillColor=none;align=center;verticalAlign=middle;whiteSpace=wrap;rounded=0;" parent="1" vertex="1">
          <mxGeometry x="570" y="160" width="60" height="30" as="geometry" />
        </mxCell>
        <mxCell id="CV6mvbsiMCkfMjd8S5vn-51" value="14h-&lt;br&gt;17h" style="text;html=1;strokeColor=none;fillColor=none;align=center;verticalAlign=middle;whiteSpace=wrap;rounded=0;" parent="1" vertex="1">
          <mxGeometry x="650" y="160" width="60" height="30" as="geometry" />
        </mxCell>
        <mxCell id="CV6mvbsiMCkfMjd8S5vn-52" value="18h-&lt;br&gt;21h" style="text;html=1;strokeColor=none;fillColor=none;align=center;verticalAlign=middle;whiteSpace=wrap;rounded=0;" parent="1" vertex="1">
          <mxGeometry x="730" y="160" width="60" height="30" as="geometry" />
        </mxCell>
        <mxCell id="CV6mvbsiMCkfMjd8S5vn-54" value="IOreq" style="text;html=1;strokeColor=none;fillColor=none;align=center;verticalAlign=middle;whiteSpace=wrap;rounded=0;" parent="1" vertex="1">
          <mxGeometry x="190" y="90" width="60" height="30" as="geometry" />
        </mxCell>
        <mxCell id="CV6mvbsiMCkfMjd8S5vn-55" value="Mreq" style="text;html=1;strokeColor=none;fillColor=none;align=center;verticalAlign=middle;whiteSpace=wrap;rounded=0;" parent="1" vertex="1">
          <mxGeometry x="110" y="90" width="60" height="30" as="geometry" />
        </mxCell>
        <mxCell id="CV6mvbsiMCkfMjd8S5vn-57" value="PIO&lt;div&gt;cs2&lt;/div&gt;&lt;div&gt;Disp&lt;/div&gt;" style="rounded=0;whiteSpace=wrap;html=1;fillColor=#f5f5f5;strokeColor=#666666;fontColor=#333333;" parent="1" vertex="1">
          <mxGeometry x="320" y="80" width="40" height="80" as="geometry" />
        </mxCell>
        <mxCell id="CV6mvbsiMCkfMjd8S5vn-58" value="PIO&lt;div&gt;cs3&lt;/div&gt;&lt;div&gt;Motor&lt;/div&gt;" style="rounded=0;whiteSpace=wrap;html=1;fillColor=#f5f5f5;strokeColor=#666666;fontColor=#333333;" parent="1" vertex="1">
          <mxGeometry x="400" y="80" width="40" height="80" as="geometry" />
        </mxCell>
        <mxCell id="CV6mvbsiMCkfMjd8S5vn-59" value="PIO&lt;div&gt;cs2&lt;/div&gt;&lt;div&gt;Disp&lt;/div&gt;" style="rounded=0;whiteSpace=wrap;html=1;fillColor=#fff2cc;strokeColor=#d6b656;" parent="1" vertex="1">
          <mxGeometry x="320" y="80" width="40" height="80" as="geometry" />
        </mxCell>
        <mxCell id="CV6mvbsiMCkfMjd8S5vn-60" value="PIO&lt;div&gt;cs3&lt;/div&gt;&lt;div&gt;Motor&lt;/div&gt;" style="rounded=0;whiteSpace=wrap;html=1;fillColor=#fff2cc;strokeColor=#d6b656;" parent="1" vertex="1">
          <mxGeometry x="400" y="80" width="40" height="80" as="geometry" />
        </mxCell>
        <mxCell id="CV6mvbsiMCkfMjd8S5vn-61" value="CTC&lt;div&gt;cs1&lt;/div&gt;&lt;div&gt;Sys&lt;/div&gt;" style="rounded=0;whiteSpace=wrap;html=1;fillColor=#ffe6cc;strokeColor=#d79b00;" parent="1" vertex="1">
          <mxGeometry x="240" y="80" width="40" height="80" as="geometry" />
        </mxCell>
        <mxCell id="CV6mvbsiMCkfMjd8S5vn-63" style="edgeStyle=orthogonalEdgeStyle;rounded=0;orthogonalLoop=1;jettySize=auto;html=1;endArrow=none;endFill=0;startArrow=classic;startFill=1;" parent="1" source="CV6mvbsiMCkfMjd8S5vn-62" edge="1">
          <mxGeometry relative="1" as="geometry">
            <mxPoint x="880" y="-60" as="targetPoint" />
          </mxGeometry>
        </mxCell>
        <mxCell id="CV6mvbsiMCkfMjd8S5vn-65" style="edgeStyle=orthogonalEdgeStyle;rounded=0;orthogonalLoop=1;jettySize=auto;html=1;exitX=0;exitY=0.25;exitDx=0;exitDy=0;" parent="1" source="CV6mvbsiMCkfMjd8S5vn-62" edge="1">
          <mxGeometry relative="1" as="geometry">
            <mxPoint x="730" y="-71.40000000000009" as="targetPoint" />
          </mxGeometry>
        </mxCell>
        <mxCell id="CV6mvbsiMCkfMjd8S5vn-66" style="edgeStyle=orthogonalEdgeStyle;rounded=0;orthogonalLoop=1;jettySize=auto;html=1;exitX=0;exitY=0.75;exitDx=0;exitDy=0;" parent="1" source="CV6mvbsiMCkfMjd8S5vn-62" edge="1">
          <mxGeometry relative="1" as="geometry">
            <mxPoint x="730" y="-48.59999999999991" as="targetPoint" />
          </mxGeometry>
        </mxCell>
        <mxCell id="CV6mvbsiMCkfMjd8S5vn-75" style="edgeStyle=orthogonalEdgeStyle;rounded=0;orthogonalLoop=1;jettySize=auto;html=1;exitX=0.5;exitY=1;exitDx=0;exitDy=0;entryX=0.5;entryY=0;entryDx=0;entryDy=0;" parent="1" source="CV6mvbsiMCkfMjd8S5vn-62" target="CV6mvbsiMCkfMjd8S5vn-74" edge="1">
          <mxGeometry relative="1" as="geometry" />
        </mxCell>
        <mxCell id="CV6mvbsiMCkfMjd8S5vn-62" value="PSU" style="rounded=0;whiteSpace=wrap;html=1;" parent="1" vertex="1">
          <mxGeometry x="760" y="-82.5" width="60" height="45" as="geometry" />
        </mxCell>
        <mxCell id="CV6mvbsiMCkfMjd8S5vn-64" value="~220В" style="text;html=1;strokeColor=none;fillColor=none;align=center;verticalAlign=middle;whiteSpace=wrap;rounded=0;" parent="1" vertex="1">
          <mxGeometry x="830" y="-85" width="60" height="30" as="geometry" />
        </mxCell>
        <mxCell id="CV6mvbsiMCkfMjd8S5vn-67" value="+24В" style="text;html=1;strokeColor=none;fillColor=none;align=center;verticalAlign=middle;whiteSpace=wrap;rounded=0;" parent="1" vertex="1">
          <mxGeometry x="700" y="-100" width="60" height="30" as="geometry" />
        </mxCell>
        <mxCell id="CV6mvbsiMCkfMjd8S5vn-68" value="+5B" style="text;html=1;strokeColor=none;fillColor=none;align=center;verticalAlign=middle;whiteSpace=wrap;rounded=0;" parent="1" vertex="1">
          <mxGeometry x="700" y="-75" width="60" height="30" as="geometry" />
        </mxCell>
        <mxCell id="CV6mvbsiMCkfMjd8S5vn-71" style="edgeStyle=orthogonalEdgeStyle;rounded=0;orthogonalLoop=1;jettySize=auto;html=1;exitX=1;exitY=0.5;exitDx=0;exitDy=0;entryX=0;entryY=0.5;entryDx=0;entryDy=0;startArrow=classic;startFill=1;" parent="1" source="CV6mvbsiMCkfMjd8S5vn-69" target="0lFUQKCt9tWRBDmIXA40-71" edge="1">
          <mxGeometry relative="1" as="geometry" />
        </mxCell>
        <mxCell id="CV6mvbsiMCkfMjd8S5vn-69" value="" style="triangle;whiteSpace=wrap;html=1;" parent="1" vertex="1">
          <mxGeometry x="800" y="102.5" width="30" height="35" as="geometry" />
        </mxCell>
        <mxCell id="CV6mvbsiMCkfMjd8S5vn-72" style="edgeStyle=orthogonalEdgeStyle;rounded=0;orthogonalLoop=1;jettySize=auto;html=1;exitX=1;exitY=0.5;exitDx=0;exitDy=0;entryX=0;entryY=0.5;entryDx=0;entryDy=0;" parent="1" edge="1">
          <mxGeometry relative="1" as="geometry">
            <mxPoint x="760" y="120" as="sourcePoint" />
            <mxPoint x="800" y="120" as="targetPoint" />
            <Array as="points">
              <mxPoint x="780" y="120" />
              <mxPoint x="780" y="120" />
            </Array>
          </mxGeometry>
        </mxCell>
        <mxCell id="CV6mvbsiMCkfMjd8S5vn-73" style="edgeStyle=orthogonalEdgeStyle;rounded=0;orthogonalLoop=1;jettySize=auto;html=1;exitX=1;exitY=0.5;exitDx=0;exitDy=0;entryX=0;entryY=0.5;entryDx=0;entryDy=0;startArrow=classic;startFill=1;" parent="1" edge="1">
          <mxGeometry relative="1" as="geometry">
            <mxPoint x="760" y="120" as="sourcePoint" />
            <mxPoint x="800" y="120" as="targetPoint" />
            <Array as="points">
              <mxPoint x="780" y="120" />
              <mxPoint x="780" y="120" />
            </Array>
          </mxGeometry>
        </mxCell>
        <mxCell id="CV6mvbsiMCkfMjd8S5vn-76" style="edgeStyle=orthogonalEdgeStyle;rounded=0;orthogonalLoop=1;jettySize=auto;html=1;exitX=0.5;exitY=1;exitDx=0;exitDy=0;" parent="1" source="CV6mvbsiMCkfMjd8S5vn-74" target="CV6mvbsiMCkfMjd8S5vn-69" edge="1">
          <mxGeometry relative="1" as="geometry" />
        </mxCell>
        <mxCell id="CV6mvbsiMCkfMjd8S5vn-74" value="±12В" style="rounded=0;whiteSpace=wrap;html=1;" parent="1" vertex="1">
          <mxGeometry x="795" y="30" width="40" height="40" as="geometry" />
        </mxCell>
        <mxCell id="5LBfQkNzWHgMpl-Exuhz-4" style="edgeStyle=orthogonalEdgeStyle;rounded=0;orthogonalLoop=1;jettySize=auto;html=1;exitX=1;exitY=0.5;exitDx=0;exitDy=0;entryX=0;entryY=0.5;entryDx=0;entryDy=0;" edge="1" parent="1" source="5LBfQkNzWHgMpl-Exuhz-1" target="5LBfQkNzWHgMpl-Exuhz-5">
          <mxGeometry relative="1" as="geometry">
            <mxPoint x="700" as="targetPoint" />
          </mxGeometry>
        </mxCell>
        <mxCell id="5LBfQkNzWHgMpl-Exuhz-1" value="" style="triangle;whiteSpace=wrap;html=1;" vertex="1" parent="1">
          <mxGeometry x="645" y="-20" width="30" height="40" as="geometry" />
        </mxCell>
        <mxCell id="5LBfQkNzWHgMpl-Exuhz-3" value="B" style="text;html=1;strokeColor=none;fillColor=none;align=center;verticalAlign=middle;whiteSpace=wrap;rounded=0;" vertex="1" parent="1">
          <mxGeometry x="570" y="45" width="60" height="30" as="geometry" />
        </mxCell>
        <mxCell id="5LBfQkNzWHgMpl-Exuhz-5" value="Магнитофон" style="text;html=1;strokeColor=none;fillColor=none;align=center;verticalAlign=middle;whiteSpace=wrap;rounded=0;" vertex="1" parent="1">
          <mxGeometry x="700" y="-17.5" width="80" height="35" as="geometry" />
        </mxCell>
      </root>
    </mxGraphModel>
  </diagram>
  <diagram id="NGJhJQtkFtaZ4ss05yhz" name="Страница 3">
    <mxGraphModel dx="810" dy="473" grid="1" gridSize="10" guides="1" tooltips="1" connect="1" arrows="1" fold="1" page="1" pageScale="1" pageWidth="1169" pageHeight="1654" math="0" shadow="0">
      <root>
        <mxCell id="0" />
        <mxCell id="1" parent="0" />
        <mxCell id="lkY9hdKWecqx7wNwt7jR-3" style="edgeStyle=orthogonalEdgeStyle;rounded=0;orthogonalLoop=1;jettySize=auto;html=1;exitX=1;exitY=0.25;exitDx=0;exitDy=0;entryX=0.248;entryY=1.13;entryDx=0;entryDy=0;entryPerimeter=0;" edge="1" parent="1" source="lkY9hdKWecqx7wNwt7jR-1" target="lkY9hdKWecqx7wNwt7jR-2">
          <mxGeometry relative="1" as="geometry" />
        </mxCell>
        <mxCell id="lkY9hdKWecqx7wNwt7jR-4" style="edgeStyle=orthogonalEdgeStyle;rounded=0;orthogonalLoop=1;jettySize=auto;html=1;exitX=1;exitY=0.5;exitDx=0;exitDy=0;entryX=0.5;entryY=1;entryDx=0;entryDy=0;" edge="1" parent="1" source="lkY9hdKWecqx7wNwt7jR-1" target="lkY9hdKWecqx7wNwt7jR-2">
          <mxGeometry relative="1" as="geometry" />
        </mxCell>
        <mxCell id="lkY9hdKWecqx7wNwt7jR-5" style="edgeStyle=orthogonalEdgeStyle;rounded=0;orthogonalLoop=1;jettySize=auto;html=1;exitX=1;exitY=0.75;exitDx=0;exitDy=0;entryX=0.75;entryY=1;entryDx=0;entryDy=0;" edge="1" parent="1" source="lkY9hdKWecqx7wNwt7jR-1" target="lkY9hdKWecqx7wNwt7jR-2">
          <mxGeometry relative="1" as="geometry" />
        </mxCell>
        <mxCell id="lkY9hdKWecqx7wNwt7jR-1" value="Z80" style="rounded=0;whiteSpace=wrap;html=1;fillColor=#d5e8d4;strokeColor=#82b366;" vertex="1" parent="1">
          <mxGeometry x="260" y="320" width="50" height="120" as="geometry" />
        </mxCell>
        <mxCell id="lkY9hdKWecqx7wNwt7jR-18" style="edgeStyle=orthogonalEdgeStyle;rounded=0;orthogonalLoop=1;jettySize=auto;html=1;exitX=0.5;exitY=0;exitDx=0;exitDy=0;entryX=0;entryY=0.5;entryDx=0;entryDy=0;" edge="1" parent="1" source="lkY9hdKWecqx7wNwt7jR-2" target="lkY9hdKWecqx7wNwt7jR-19">
          <mxGeometry relative="1" as="geometry">
            <mxPoint x="450" y="380" as="targetPoint" />
          </mxGeometry>
        </mxCell>
        <mxCell id="lkY9hdKWecqx7wNwt7jR-2" value="" style="shape=trapezoid;perimeter=trapezoidPerimeter;whiteSpace=wrap;html=1;fixedSize=1;rotation=90;fillColor=#d5e8d4;strokeColor=#82b366;" vertex="1" parent="1">
          <mxGeometry x="310" y="370" width="120" height="20" as="geometry" />
        </mxCell>
        <mxCell id="lkY9hdKWecqx7wNwt7jR-6" value="addr" style="text;html=1;strokeColor=none;fillColor=none;align=center;verticalAlign=middle;whiteSpace=wrap;rounded=0;" vertex="1" parent="1">
          <mxGeometry x="300" y="320" width="60" height="30" as="geometry" />
        </mxCell>
        <mxCell id="lkY9hdKWecqx7wNwt7jR-7" value="data" style="text;html=1;strokeColor=none;fillColor=none;align=center;verticalAlign=middle;whiteSpace=wrap;rounded=0;" vertex="1" parent="1">
          <mxGeometry x="300" y="350" width="60" height="30" as="geometry" />
        </mxCell>
        <mxCell id="lkY9hdKWecqx7wNwt7jR-8" value="ctrl" style="text;html=1;strokeColor=none;fillColor=none;align=center;verticalAlign=middle;whiteSpace=wrap;rounded=0;" vertex="1" parent="1">
          <mxGeometry x="300" y="380" width="60" height="30" as="geometry" />
        </mxCell>
        <mxCell id="lkY9hdKWecqx7wNwt7jR-9" value="Разъем" style="text;html=1;strokeColor=none;fillColor=none;align=center;verticalAlign=middle;whiteSpace=wrap;rounded=0;rotation=-90;" vertex="1" parent="1">
          <mxGeometry x="340" y="360" width="60" height="30" as="geometry" />
        </mxCell>
        <mxCell id="lkY9hdKWecqx7wNwt7jR-19" value="Hantek 4032L" style="rounded=0;whiteSpace=wrap;html=1;fillColor=#dae8fc;strokeColor=#6c8ebf;" vertex="1" parent="1">
          <mxGeometry x="410" y="360" width="95" height="40" as="geometry" />
        </mxCell>
        <mxCell id="lkY9hdKWecqx7wNwt7jR-17" value="&amp;nbsp;PulseView" style="shape=step;perimeter=stepPerimeter;whiteSpace=wrap;html=1;fixedSize=1;fillColor=#fff2cc;strokeColor=#d6b656;" vertex="1" parent="1">
          <mxGeometry x="480" y="360" width="100" height="40" as="geometry" />
        </mxCell>
        <mxCell id="lkY9hdKWecqx7wNwt7jR-20" value="Z80 Decoder&amp;nbsp;&amp;nbsp;" style="shape=step;perimeter=stepPerimeter;whiteSpace=wrap;html=1;fixedSize=1;align=right;fillColor=#ffe6cc;strokeColor=#d79b00;" vertex="1" parent="1">
          <mxGeometry x="560" y="360" width="100" height="40" as="geometry" />
        </mxCell>
        <mxCell id="lkY9hdKWecqx7wNwt7jR-24" style="edgeStyle=orthogonalEdgeStyle;rounded=0;orthogonalLoop=1;jettySize=auto;html=1;entryX=0;entryY=0.5;entryDx=0;entryDy=0;" edge="1" parent="1" source="lkY9hdKWecqx7wNwt7jR-21" target="lkY9hdKWecqx7wNwt7jR-23">
          <mxGeometry relative="1" as="geometry" />
        </mxCell>
        <mxCell id="lkY9hdKWecqx7wNwt7jR-26" style="edgeStyle=orthogonalEdgeStyle;rounded=0;orthogonalLoop=1;jettySize=auto;html=1;exitX=1;exitY=0.5;exitDx=0;exitDy=0;entryX=0.5;entryY=0;entryDx=0;entryDy=0;" edge="1" parent="1" source="lkY9hdKWecqx7wNwt7jR-21" target="lkY9hdKWecqx7wNwt7jR-25">
          <mxGeometry relative="1" as="geometry" />
        </mxCell>
        <mxCell id="lkY9hdKWecqx7wNwt7jR-21" value="z80.py&amp;nbsp; &amp;nbsp; &amp;nbsp;" style="shape=step;perimeter=stepPerimeter;whiteSpace=wrap;html=1;fixedSize=1;align=right;fillColor=#f8cecc;strokeColor=#b85450;" vertex="1" parent="1">
          <mxGeometry x="640" y="360" width="80" height="40" as="geometry" />
        </mxCell>
        <mxCell id="lkY9hdKWecqx7wNwt7jR-23" value="Perfetto UI" style="rounded=0;whiteSpace=wrap;html=1;fillColor=#e1d5e7;strokeColor=#9673a6;" vertex="1" parent="1">
          <mxGeometry x="760" y="350" width="80" height="60" as="geometry" />
        </mxCell>
        <mxCell id="lkY9hdKWecqx7wNwt7jR-25" value="Trace Dump" style="text;html=1;strokeColor=none;fillColor=none;align=center;verticalAlign=middle;whiteSpace=wrap;rounded=0;" vertex="1" parent="1">
          <mxGeometry x="710" y="430" width="60" height="30" as="geometry" />
        </mxCell>
        <mxCell id="lkY9hdKWecqx7wNwt7jR-31" style="edgeStyle=orthogonalEdgeStyle;rounded=0;orthogonalLoop=1;jettySize=auto;html=1;entryX=0;entryY=0.5;entryDx=0;entryDy=0;" edge="1" parent="1" source="lkY9hdKWecqx7wNwt7jR-27" target="lkY9hdKWecqx7wNwt7jR-28">
          <mxGeometry relative="1" as="geometry" />
        </mxCell>
        <mxCell id="lkY9hdKWecqx7wNwt7jR-27" value="S6130.BIN" style="rounded=0;whiteSpace=wrap;html=1;fillColor=#d5e8d4;strokeColor=#82b366;" vertex="1" parent="1">
          <mxGeometry x="440" y="280" width="80" height="40" as="geometry" />
        </mxCell>
        <mxCell id="lkY9hdKWecqx7wNwt7jR-29" style="edgeStyle=orthogonalEdgeStyle;rounded=0;orthogonalLoop=1;jettySize=auto;html=1;entryX=0.546;entryY=-0.082;entryDx=0;entryDy=0;entryPerimeter=0;" edge="1" parent="1" source="lkY9hdKWecqx7wNwt7jR-28" target="lkY9hdKWecqx7wNwt7jR-21">
          <mxGeometry relative="1" as="geometry">
            <Array as="points">
              <mxPoint x="684" y="300" />
            </Array>
          </mxGeometry>
        </mxCell>
        <mxCell id="lkY9hdKWecqx7wNwt7jR-28" value="IDA PRO" style="rounded=0;whiteSpace=wrap;html=1;fillColor=#dae8fc;strokeColor=#6c8ebf;" vertex="1" parent="1">
          <mxGeometry x="560" y="280" width="80" height="40" as="geometry" />
        </mxCell>
        <mxCell id="lkY9hdKWecqx7wNwt7jR-30" value="Addr Map" style="text;html=1;strokeColor=none;fillColor=none;align=center;verticalAlign=middle;whiteSpace=wrap;rounded=0;" vertex="1" parent="1">
          <mxGeometry x="690" y="280" width="60" height="30" as="geometry" />
        </mxCell>
      </root>
    </mxGraphModel>
  </diagram>
</mxfile>
